inDegrees=no
num_controls=7
num_derivatives=13
num_iterations=196
num_multipliers=7
num_parameters=0
num_slacks=7
num_states=26
objective=0.509557
objective_accelerations=0.039868
objective_balance=0.003661
objective_effort=0.029184
objective_height=0.323786
objective_ligament=0.113057
solver_duration=2469.054742
status=Solve_Succeeded
success=true
DataType=double
version=3
OpenSimVersion=4.5
endheader
time	/jointset/ground_pelvis/pelvis_tilt/value	/jointset/ground_pelvis/pelvis_tx/value	/jointset/ground_pelvis/pelvis_ty/value	/jointset/hip_l/hip_flexion_l/value	/jointset/hip_l/hip_adduction_l/value	/jointset/hip_l/hip_rotation_l/value	/jointset/back/lumbar_extension/value	/jointset/patellofemoral_l/patellar_flexion_l/value	/jointset/knee_l/knee_flexion_l/value	/jointset/knee_l/knee_adduction_l/value	/jointset/knee_l/knee_rotation_l/value	/jointset/ankle_l/ankle_angle_l/value	/jointset/subtalar_l/subtalar_angle_l/value	/jointset/ground_pelvis/pelvis_tilt/speed	/jointset/ground_pelvis/pelvis_tx/speed	/jointset/ground_pelvis/pelvis_ty/speed	/jointset/hip_l/hip_flexion_l/speed	/jointset/hip_l/hip_adduction_l/speed	/jointset/hip_l/hip_rotation_l/speed	/jointset/back/lumbar_extension/speed	/jointset/patellofemoral_l/patellar_flexion_l/speed	/jointset/knee_l/knee_flexion_l/speed	/jointset/knee_l/knee_adduction_l/speed	/jointset/knee_l/knee_rotation_l/speed	/jointset/ankle_l/ankle_angle_l/speed	/jointset/subtalar_l/subtalar_angle_l/speed	/forceset/tau_hip_flexion_l	/forceset/tau_hip_adduction_l	/forceset/tau_hip_rotation_l	/forceset/tau_knee_flexion_l	/forceset/tau_ankle_angle_l	/forceset/tau_subtalar_angle_l	/forceset/tau_lumbar_extension	lambda_cid13_p0	lambda_cid13_p1	lambda_cid13_p2	lambda_cid13_p3	lambda_cid13_p4	lambda_cid13_p5	lambda_cid14_p0	/jointset/ground_pelvis/pelvis_tilt/accel	/jointset/ground_pelvis/pelvis_tx/accel	/jointset/ground_pelvis/pelvis_ty/accel	/jointset/hip_l/hip_flexion_l/accel	/jointset/hip_l/hip_adduction_l/accel	/jointset/hip_l/hip_rotation_l/accel	/jointset/back/lumbar_extension/accel	/jointset/patellofemoral_l/patellar_flexion_l/accel	/jointset/knee_l/knee_flexion_l/accel	/jointset/knee_l/knee_adduction_l/accel	/jointset/knee_l/knee_rotation_l/accel	/jointset/ankle_l/ankle_angle_l/accel	/jointset/subtalar_l/subtalar_angle_l/accel	gamma_cid13_p0	gamma_cid13_p1	gamma_cid13_p2	gamma_cid13_p3	gamma_cid13_p4	gamma_cid13_p5	gamma_cid14_p0
1	-0.1664347136300079	-0.07611865876529067	0.7297120423866942	1.246230724788477	-0.3309171752773317	0.00604099011741049	-0.9599081851304444	1.170892454135124	1.170892454134794	-0.08907608842045842	-0.1744699018809404	0.17054935688498	0.01849762320841059	0.08060137811442421	0.01424768311274157	0.07296920266891015	-0.2862001996766709	0.002545017550131675	-0.08805515963537236	-0.003261424715281238	-0.2243887910424255	-0.2243887910424258	0.004986238892310734	0.001638335188408054	-0.03184007236023707	-0.007456269917497195	-0.4122299428413009	0.03862415423164858	-0.004505447538437993	-0.2689040878362926	0.04422977398903936	0.03722158117858332	0.4417688644897588	-35.97768029826601	-10.06025250805861	1.371567534053016	14.56756968695108	-787.7429557321639	-60.32228938499649	-1.601701087729763	1.160303403058804	0.05216817510683681	1.278435386347628	-4.730193361425698	0.1380591479040512	-1.730323925989285	0.2017654298777163	-4.411602828498532	-4.411602828498538	0.2167723173407381	0.1179918255585647	-1.092718492402589	-0.2160351314597133	-2.272671900540543e-08	-3.635392775553729e-08	8.641840178011623e-08	1.48721543903482e-08	-3.395180745066526e-08	4.287888079538167e-08	-1.968666724071695e-08
1.01	-0.165570946318962	-0.075973446247939	0.7305055462604417	1.243132634834852	-0.3308840649938646	0.005073577841277603	-0.9599298203362491	1.168428147118572	1.16842814711844	-0.08901393836706059	-0.1744468367752425	0.1701765814262956	0.01841326099791725	0.09217310655681603	0.01480952067464087	0.08573257445619366	-0.3334609850295398	0.0040903115916176	-0.1054198715522374	-0.001034170471080435	-0.2684931439810526	-0.268493143981054	0.007441139823648	0.002981108814587725	-0.04271099472925569	-0.009398835131718106	-0.4121327569013086	0.03883068100346832	-0.004549188011130197	-0.2684517938342987	0.04442680191287832	0.03739904211022253	0.4420904049824289	-35.90993328561638	-10.16138732513225	1.401628315010035	14.29606100657272	-787.9170321575569	-60.43575222565392	-1.650375441076385	1.158759193972678	0.06040049657799685	1.27543048191014	-4.730503074968915	0.1647468066164207	-1.738453118837733	0.2379223200927977	-4.412926486041115	-4.412926486041276	0.2594421453847916	0.1434062385394692	-1.083678070287097	-0.1807713995401027	-2.837744386714317e-08	-4.637115014547149e-08	1.051833344535143e-07	1.94641382387557e-08	-3.968891361489818e-08	4.854872964181263e-08	-2.394401647392629e-08
1.02	-0.1645908313976656	-0.07582217356499918	0.7314267123334606	1.239560640637148	-0.3308351053151166	0.003932736787136392	-0.9599282396201394	1.165522181580734	1.165522181580801	-0.08892732067146671	-0.174410146711818	0.1696952169516941	0.0183099922986544	0.1038709001649404	0.01545971623037586	0.09850164252315055	-0.380981048492468	0.005714896606915653	-0.1227409152412024	0.001381759709181298	-0.3127204952995304	-0.3127204952995329	0.009879767329166803	0.004363326736438833	-0.05355787554369653	-0.01123756767141147	-0.4120355709613078	0.03903720777531989	-0.00459292848384065	-0.2679994998323015	0.04462382983672643	0.03757650304190284	0.4424119454751018	-35.85442247305973	-10.25904742244055	1.429613279478925	14.07920228737512	-788.2500574866048	-60.53934069287288	-1.708511291911074	1.185516436205245	0.06983977387404025	1.27957464228231	-4.782048983437563	0.1539173426664443	-1.721590280409319	0.2395006170895804	-4.436202504468651	-4.43620250446866	0.2135176321770507	0.125880684692778	-1.087910181486934	-0.1952685965542044	-3.179510336918143e-08	-5.926887301024625e-08	1.235883896543928e-07	1.845138499327857e-08	-4.180859565753679e-08	5.310058928175327e-08	-2.868726288709809e-08
1.03	-0.1634938017651579	-0.07566385251043889	0.7324753766515697	1.235513211638881	-0.3307695633897201	0.002619036746003488	-0.9599000231586352	1.16217383089444	1.162173830894569	-0.08881646295237423	-0.1743596253181516	0.1691056535544219	0.01818883757387671	0.1154862073089571	0.01622982011274402	0.111210144269189	-0.4284415450256657	0.007400789702358524	-0.1399830294950992	0.004447088219779987	-0.3569197483862879	-0.3569197483862878	0.01228659350873075	0.005726919658033238	-0.06433544950193211	-0.01297755423970138	-0.412305743884567	0.03926070510953598	-0.004651712311973686	-0.2670550934418533	0.04483885267483418	0.03787111822629141	0.4433206121911728	-35.76939502221845	-10.42206912254372	1.478656877530753	13.57662696020582	-788.4601680782011	-60.68559243090399	-1.776549591543523	1.142212445175459	0.08439798007163246	1.263317625471346	-4.718572779053999	0.1770089112846422	-1.723142921604501	0.3678823120922638	-4.407295958899907	-4.407295958899534	0.253470412499096	0.1395242171863801	-1.069781224203993	-0.1609951896914571	-3.518997648999827e-08	-7.219598873700919e-08	1.419897726361638e-07	1.738144055296585e-08	-4.389136520913873e-08	5.764104086856646e-08	-3.343546743475931e-08
1.04	-0.1622820841428776	-0.0754970699601244	0.7336504919240807	1.230993073117118	-0.3306869458097131	0.001133391377605964	-0.9598355867432106	1.158384385827654	1.158384385827848	-0.08868169591114745	-0.1742958828710176	0.1684088943733248	0.0180507566828711	0.1268084981199974	0.01715201538121965	0.1237918334035169	-0.4755229531905905	0.009130027529850726	-0.1571299806979765	0.008625750492273902	-0.4009393713978682	-0.4009393713978655	0.01466163175441392	0.007007537431371342	-0.07499703230865083	-0.01462280091699371	-0.4125759168078314	0.03948420244377662	-0.004710496140157676	-0.2661106870514024	0.04505387551295166	0.03816573341071326	0.4442292789072347	-35.6966948136875	-10.58164220012616	1.525676824960003	13.12727571212614	-788.8314597311607	-60.82304175974038	-1.85494100559935	1.1269131696099	0.1002580510956015	1.254212119940217	-4.70623130978298	0.1625862890762764	-1.702557670205484	0.4621673694685917	-4.400276489433186	-4.400276489433182	0.2071600454008981	0.1092856550414409	-1.06471195118346	-0.176320618354688	-3.855324526374023e-08	-8.256595242451226e-08	1.551264911462885e-07	1.838854943523102e-08	-4.845022364497332e-08	5.888275322939613e-08	-3.661055854275918e-08
1.05	-0.1609585748529768	-0.07532029096581488	0.7349507532667751	1.226004033623351	-0.3305868165141681	-0.000523172650818697	-0.9597238738915193	1.154155669356063	1.154155669356071	-0.08852341920623087	-0.1742197866986291	0.1676060750551562	0.01789668867117616	0.1378459799734432	0.01823054868034742	0.1362354439020395	-0.5222177603335593	0.01090549892217591	-0.1741638349362069	0.01389727325028262	-0.4447712779466527	-0.4447712779466522	0.01698735672343592	0.008195515226338568	-0.08554945282654559	-0.01617303364259874	-0.4125110541825613	0.03972174854657962	-0.004782726385983419	-0.265050297302531	0.04544237268650045	0.03849162154057935	0.4448904159893083	-35.54356959294677	-10.77144636035615	1.580449150184325	12.59074052869685	-788.8510252001246	-60.99892588532095	-1.944207764186937	1.085055728986019	0.1156696524084647	1.235676165715411	-4.641031988027279	0.1864641978837659	-1.700987466891697	0.5867127395357735	-4.369743012608398	-4.369743012608744	0.2443047666192792	0.1211624816882342	-1.047904541020124	-0.1417141247029717	-4.191552640163611e-08	-9.285600511078848e-08	1.680986888916743e-07	1.946056623382674e-08	-5.308645985844018e-08	6.002137998941384e-08	-3.973648985576964e-08
1.06	-0.1595261127373898	-0.07513192290189684	0.7363746988446362	1.220550060743861	-0.330468645177989	-0.002349512854860249	-0.9595540322101334	1.149489614763982	1.149489614763804	-0.08834208004282637	-0.1741322890203021	0.166698252044023	0.01772765042721719	0.1485990632578555	0.01946982930292884	0.1485286804368744	-0.5685096303354662	0.01273843565741996	-0.1910852158248269	0.02025151643104741	-0.4884069954957285	-0.4884069954957302	0.0192741234511125	0.009287838619860225	-0.09599777090154454	-0.01761684736978581	-0.4124461915572715	0.03995929464940422	-0.004854956631881413	-0.2639899075536563	0.04583086986005377	0.03881750967047357	0.4455515530713959	-35.40276960695886	-10.95793380280743	1.633369104018012	12.10511275466855	-789.0330468485939	-61.16761788489423	-2.044896267686143	1.070033455803099	0.1324075157863978	1.224137327202723	-4.62564388157064	0.1740793576600182	-1.680063000283482	0.6787114540197779	-4.361038689491422	-4.361038689491439	0.1993683971318188	0.0901547747522551	-1.04389146260419	-0.1550368186710933	-4.471428142616554e-08	-1.024772561096397e-07	1.776696850544786e-07	2.019987001012295e-08	-5.725787230787393e-08	5.980176110345909e-08	-4.220379704854336e-08
1.07	-0.1579874660001789	-0.07493034684442265	0.7379207898888758	1.214635163169371	-0.3303318684025333	-0.004344425818025462	-0.9593153878689857	1.144388222380599	1.144388222380542	-0.08813817127993999	-0.174034401245646	0.1656864471424616	0.01754468227154594	0.1590884650442287	0.02087331195574338	0.1606607948903362	-0.6144024518807824	0.01462827752573535	-0.2078758469581618	0.02764511397108831	-0.5318349073747939	-0.5318349073747879	0.02149963877283987	0.01027046186752194	-0.1063471082284199	-0.01895767461061708	-0.4120073015051029	0.04020243045629733	-0.004939090591021013	-0.2628066897685504	0.04637381492494503	0.03917381128400917	0.4459090893468954	-35.18570134534995	-11.17359687108365	1.693925295085342	11.54530776179578	-788.8249495818901	-61.37466538763268	-2.15763315767332	1.032117364019598	0.1485122993061512	1.203426136793131	-4.560991253392928	0.1981259187199801	-1.675375482444141	0.7948482298192007	-4.328172404518436	-4.328172404517256	0.2329200966906647	0.09946777707668726	-1.028044710021619	-0.1207431059866151	-4.74830616574308e-08	-1.120629325506492e-07	1.87059766239486e-07	2.092147628523301e-08	-6.140456008900804e-08	5.950989510867602e-08	-4.463607104343214e-08
